<?xml version="1.0" encoding="UTF-8" standalone="no"?>
<svg width="80px" height="80px" viewBox="0 0 80 80" version="1.1" xmlns="http://www.w3.org/2000/svg" xmlns:xlink="http://www.w3.org/1999/xlink" xmlns:sketch="http://www.bohemiancoding.com/sketch/ns">
    <!-- Generator: Sketch 3.0.4 (8053) - http://www.bohemiancoding.com/sketch -->
    <title>Logo</title>
    <desc>Created with Sketch.</desc>
    <defs></defs>
    <g id="Page-1" stroke="none" stroke-width="1" fill="none" fill-rule="evenodd" sketch:type="MSPage">
        <g id="Logo" sketch:type="MSLayerGroup">
            <path d="M80,40 C80,62.0914286 62.0914286,80 40,80 C17.9085714,80 0,62.0914286 0,40 C0,17.9085714 17.9085714,0 40,0 C62.0914286,0 80,17.9085714 80,40" id="Fill-1" fill="#1A1919" sketch:type="MSShapeGroup"></path>
            <path d="M60.7125138,46.3760434 C61.6975346,43.8823853 62.2441101,41.1680234 62.260774,38.3336814 L62.260774,38.2307356 L62.2574412,38.2307356 C62.1896747,25.9635229 52.1657915,16 39.8626589,16 C27.558045,16 17.5349024,25.9635229 17.4667656,38.2307356 L17.4641735,38.2307356 L17.4641735,38.3336814 C17.4808374,41.1680234 18.0270425,43.8823853 19.012804,46.3760434 C18.0207473,48.0946455 17.4545455,50.0857948 17.4545455,52.2035897 C17.4545455,56.0003636 19.3060884,59.576804 22.4129775,61.771623 L23.6349958,60.0463553 C21.0906055,58.244804 19.5690075,55.3141818 19.5690075,52.2035897 C19.5690075,51.0252677 19.7823053,49.8998999 20.1752027,48.8574812 C20.4781151,48.0379883 20.894342,47.2721902 21.4005538,46.5793428 C23.1487807,44.1749291 25.9894178,42.6103753 29.1862919,42.6103753 C34.1847173,42.6103753 38.3973478,46.4997264 38.7769141,51.4581585 C38.793578,51.7077465 38.8035763,51.9540017 38.8035763,52.2035897 C38.8035763,54.4917264 39.4627256,56.6265555 40.6047573,58.4310692 C41.0617181,59.1609475 41.5975546,59.8334279 42.2033795,60.4425855 C44.331543,62.5874128 47.2821618,63.9194128 50.5386555,63.9194128 C57.0090575,63.9194128 62.2741051,58.6643636 62.2741051,52.2035897 C62.2741051,50.1294912 61.7212344,48.1246405 60.7125138,46.3760434 L60.7125138,46.3760434 Z M50.5386555,61.801618 C48.4441902,61.801618 46.5026622,61.1287673 44.9240367,59.9900684 C44.2148957,59.4805238 43.5787056,58.8776614 43.0362035,58.1981451 C41.7134612,56.5532344 40.9217415,54.4717298 40.9217415,52.2035897 C40.9217415,51.9043803 40.90804,51.6081334 40.8876731,51.305221 C40.4225655,45.2406772 35.2826822,40.4918399 29.1862919,40.4918399 C25.7598265,40.4918399 22.6725638,41.9638165 20.5244037,44.3086105 C19.9252444,42.4200367 19.5956697,40.4155563 19.5823386,38.3373845 L19.5823386,38.3055379 C19.6093711,27.1714696 28.7000767,18.1174245 39.8626589,18.1174245 C51.026352,18.1174245 60.1185388,27.174432 60.1426088,38.3114629 L60.1426088,38.3373845 C60.1292777,40.4155563 59.8000734,42.4200367 59.2001735,44.3086105 C58.6202702,43.6724204 57.9681568,43.0962202 57.2453144,42.5933411 L56.0336647,44.3315696 C56.932774,44.9540584 57.7011643,45.7172644 58.324764,46.57601 C58.8339383,47.2788557 59.2472027,48.048357 59.5501151,48.8574812 C59.9463453,49.9165638 60.1563103,51.0452644 60.1563103,52.2035897 C60.1563103,57.49604 55.8399933,61.801618 50.5386555,61.801618 L50.5386555,61.801618 Z" id="Fill-2" fill="#FFFFFF" sketch:type="MSShapeGroup"></path>
        </g>
    </g>
</svg>